{"title":"Oldboy - 2013 (No Cinavia) 1080p","uid":11201670,"size":4184478400,"categoryP":"video","categoryS":"hd___movies","magnet":"?xt=urn:btih:7add2856333c8693228cc04498a2421794c39b14&amp;dn=Oldboy+-+2013+%28No+Cinavia%29+1080p&amp;tr=udp%3A%2F%2Ftracker.openbittorrent.com%3A80&amp;tr=udp%3A%2F%2Fopen.demonii.com%3A1337&amp;tr=udp%3A%2F%2Ftracker.coppersurfer.tk%3A6969&amp;tr=udp%3A%2F%2Fexodus.desync.com%3A6969","seeders":1,"leechers":1,"uploader":"AlienMethod","files":-1,"time":1413176587,"description":"Stax Double-Encode/x264\nCinavia Removed/CinExHD (ps3-friendly)\n2-Channel AAC@192kbps (audio 1)\n6-Channel AC3@448kbps (audio 2)\n\n\n&quot;Obsessed with vengeance, a man sets out to find out why he was kidnapped and locked into solitary confinement for 20 years without reason.&quot;\n\nVideo\nID : 1\nFormat : AVC\nFormat/Info : Advanced Video Codec\nFormat profile : &lt;a class=&quot;__cf_email__&quot; href=&quot;/cdn-cgi/l/email-protection&quot; data-cfemail=&quot;420a2b252a020e766c72&quot;&gt;[email&amp;#160;protected]&lt;/a&gt;&lt;script cf-hash='f9e31' type=&quot;text/javascript&quot;&gt;\n/* &lt;![CDATA[ */!function(){try{var t=&quot;currentScript&quot;in document?document.currentScript:function(){for(var t=document.getElementsByTagName(&quot;script&quot;),e=t.length;e--;)if(t[e].getAttribute(&quot;cf-hash&quot;))return t[e]}();if(t&amp;&amp;t.previousSibling){var e,r,n,i,c=t.previousSibling,a=c.getAttribute(&quot;data-cfemail&quot;);if(a){for(e=&quot;&quot;,r=parseInt(a.substr(0,2),16),n=2;a.length-n;n+=2)i=parseInt(a.substr(n,2),16)^r,e+=String.fromCharCode(i);e=document.createTextNode(e),c.parentNode.replaceChild(e,c)}}}catch(u){}}();/* ]]&gt; */&lt;/script&gt;\nFormat settings, CABAC : Yes\nFormat settings, ReFrames : 4 frames\nCodec ID : avc1\nCodec ID/Info : Advanced Video Coding\nDuration : 1h 43mn\nBit rate : 4 713 Kbps\nMaximum bit rate : 23.2 Mbps\nWidth : 1 920 pixels\nHeight : 800 pixels\nDisplay aspect ratio : 2.40:1\nFrame rate mode : Constant\nFrame rate : 23.976 fps\nColor space : YUV\nChroma subsampling : 4:2:0\nBit depth : 8 bits\nScan type : Progressive\nBits/(Pixel*Frame) : 0.128\nStream size : 3.42 GiB (88%)\nTitle : Oldboy(CinEx)VideoEncode_track1_und.h264\nWriting library : x264 core 142 r2479 dd79a61\nEncoded date : UTC 2014-10-12 20:12:23\nTagged date : UTC 2014-10-12 20:13:06\n\nAudio #1\nID : 2\nFormat : AAC\nFormat/Info : Advanced Audio Codec\nFormat profile : LC\nCodec ID : 40\nDuration : 1h 43mn\nBit rate mode : Variable\nBit rate : 211 Kbps\nMaximum bit rate : 262 Kbps\nChannel(s) : 2 channels\nChannel positions : Front: L R\nSampling rate : 48.0 KHz\nCompression mode : Lossy\nStream size : 157 MiB (4%)\nTitle : Oldboy(CinEx)AAC.m4a\nEncoded date : UTC 2014-10-12 20:12:38\nTagged date : UTC 2014-10-12 20:13:06\n\nAudio #2\nID : 3\nFormat : AC-3\nFormat/Info : Audio Coding 3\nMode extension : CM (complete main)\nFormat settings, Endianness : Big\nCodec ID : ac-3\nDuration : 1h 43mn\nBit rate mode : Constant\nBit rate : 448 Kbps\nChannel(s) : 6 channels\nChannel positions : Front: L C R, Side: L R, LFE\nSampling rate : 48.0 KHz\nBit depth : 16 bits\nCompression mode : Lossy\nStream size : 333 MiB (8%)\nTitle : Oldboy(CinEx)AC3.ac3\nEncoded date : UTC 2014-10-12 20:13:00\nTagged date : UTC 2014-10-12 20:13:06\n\nm/ AM m/","torrent":{"xt":"urn:btih:7add2856333c8693228cc04498a2421794c39b14","amp;dn":"Oldboy+-+2013+%28No+Cinavia%29+1080p","amp;tr":["udp%3A%2F%2Ftracker.openbittorrent.com%3A80","udp%3A%2F%2Fopen.demonii.com%3A1337","udp%3A%2F%2Ftracker.coppersurfer.tk%3A6969","udp%3A%2F%2Fexodus.desync.com%3A6969"],"infoHash":"7add2856333c8693228cc04498a2421794c39b14","infoHashBuffer":{"type":"Buffer","data":[122,221,40,86,51,60,134,147,34,140,192,68,152,162,66,23,148,195,155,20]},"announce":[],"urlList":[]}}